<svg width="97" height="22" viewBox="0 0 97 22" fill="none" xmlns="http://www.w3.org/2000/svg">
<path d="M24.5386 10.9597C24.5386 9.91529 24.7718 8.98243 25.2382 8.16111C25.7148 7.32965 26.3587 6.68578 27.1698 6.22949C27.9912 5.76307 28.9088 5.52985 29.9228 5.52985C31.1091 5.52985 32.1484 5.83404 33.0407 6.44243C33.7923 6.95487 34.3533 7.63278 34.7236 8.47615C34.8277 8.71337 34.6446 8.96722 34.3855 8.96722H32.702C32.5558 8.96722 32.4244 8.88217 32.3511 8.75565C32.1178 8.35313 31.8103 8.04341 31.4285 7.8265C30.9925 7.57301 30.4855 7.44626 29.9076 7.44626C29.289 7.44626 28.7364 7.59329 28.2497 7.88734C27.7731 8.17125 27.398 8.57684 27.1242 9.10411C26.8606 9.63137 26.7288 10.2499 26.7288 10.9597C26.7288 11.6593 26.8606 12.2778 27.1242 12.8152C27.398 13.3425 27.7731 13.7532 28.2497 14.0472C28.7364 14.3311 29.289 14.4731 29.9076 14.4731C30.4855 14.4731 30.9925 14.3463 31.4285 14.0929C31.8104 13.8672 32.1179 13.5525 32.3512 13.1486C32.4244 13.0219 32.5558 12.9369 32.702 12.9369H34.3871C34.6457 12.9369 34.8288 13.19 34.7258 13.4272C34.3556 14.2802 33.7939 14.9634 33.0407 15.4769C32.1586 16.0752 31.1193 16.3743 29.9228 16.3743C28.9088 16.3743 27.9912 16.1461 27.1698 15.6899C26.3587 15.2234 25.7148 14.5796 25.2382 13.7582C24.7718 12.9369 24.5386 12.0041 24.5386 10.9597Z" fill="#00B35E"/>
<path d="M44.0314 11.8444C44.0314 12.022 44.0245 12.1893 44.0106 12.3462C43.9943 12.5314 43.8343 12.6657 43.6484 12.6657H37.8107C37.8614 13.2741 38.0743 13.7507 38.4495 14.0954C38.8246 14.4402 39.286 14.6125 39.8335 14.6125C40.5397 14.6125 41.0641 14.3417 41.4065 13.8001C41.4839 13.6776 41.6135 13.5935 41.7584 13.5935H43.3074C43.5621 13.5935 43.7449 13.8398 43.6415 14.0726C43.3753 14.672 42.9679 15.1815 42.4192 15.6012C41.7297 16.1183 40.883 16.3768 39.8792 16.3768C39.068 16.3768 38.3379 16.1994 37.689 15.8445C37.0502 15.4795 36.5483 14.9674 36.1832 14.3083C35.8283 13.6493 35.6509 12.8888 35.6509 12.0269C35.6509 11.1549 35.8283 10.3893 36.1832 9.73026C36.5381 9.07117 37.035 8.56419 37.6738 8.2093C38.3126 7.85441 39.0477 7.67696 39.8792 7.67696C40.6802 7.67696 41.3951 7.84934 42.0237 8.19409C42.6625 8.53884 43.1543 9.03061 43.4991 9.66942C43.8539 10.2981 44.0314 11.0231 44.0314 11.8444ZM41.826 11.236C41.8159 10.6885 41.6181 10.2525 41.2328 9.92798C40.8475 9.59337 40.376 9.42606 39.8183 9.42606C39.2911 9.42606 38.8449 9.5883 38.4799 9.91277C38.125 10.2271 37.907 10.6682 37.8259 11.236H41.826Z" fill="#00B35E"/>
<path d="M45.5044 3.63843C46.4844 3.63843 47.2789 4.43288 47.2789 5.41288V15.8307C47.2789 16.0267 47.12 16.1856 46.924 16.1856C45.944 16.1856 45.1495 15.3911 45.1495 14.4111V3.99332C45.1495 3.79732 45.3084 3.63843 45.5044 3.63843Z" fill="#00B35E"/>
<path d="M56.9125 11.8429C56.9125 12.0205 56.9056 12.1878 56.8918 12.3447C56.8754 12.5299 56.7154 12.6642 56.5296 12.6642H50.6918C50.7425 13.2726 50.9554 13.7492 51.3306 14.0939C51.7058 14.4387 52.1671 14.611 52.7147 14.611C53.4209 14.611 53.9452 14.3402 54.2876 13.7986C54.365 13.6761 54.4947 13.592 54.6395 13.592H56.1885C56.4432 13.592 56.626 13.8383 56.5226 14.0711C56.2565 14.6705 55.849 15.1801 55.3003 15.5997C54.6108 16.1168 53.7641 16.3754 52.7603 16.3754C51.9491 16.3754 51.219 16.1979 50.5701 15.843C49.9313 15.478 49.4294 14.9659 49.0644 14.3069C48.7095 13.6478 48.532 12.8873 48.532 12.0254C48.532 11.1534 48.7095 10.3879 49.0644 9.72877C49.4192 9.06969 49.9161 8.5627 50.5549 8.20781C51.1937 7.85292 51.9288 7.67548 52.7603 7.67548C53.5613 7.67548 54.2762 7.84785 54.9048 8.1926C55.5436 8.53735 56.0354 9.02913 56.3802 9.66793C56.7351 10.2966 56.9125 11.0216 56.9125 11.8429ZM54.7071 11.2345C54.697 10.687 54.4992 10.251 54.1139 9.92649C53.7286 9.59188 53.2571 9.42458 52.6994 9.42458C52.1722 9.42458 51.726 9.58681 51.361 9.91128C51.0061 10.2256 50.7881 10.6667 50.707 11.2345H54.7071Z" fill="#00B35E"/>
<path d="M62.5657 7.92536C63.5695 7.92536 64.3807 8.24476 64.9993 8.88357C65.6178 9.51223 65.927 10.3944 65.927 11.53V16.0217C65.927 16.2177 65.7682 16.3766 65.5721 16.3766C64.5921 16.3766 63.7977 15.5822 63.7977 14.6022V11.819C63.7977 11.1498 63.6304 10.6377 63.2958 10.2829C62.9612 9.91782 62.5049 9.7353 61.9269 9.7353C61.3388 9.7353 60.8724 9.91782 60.5276 10.2829C60.193 10.6377 60.0257 11.1498 60.0257 11.819V16.0217C60.0257 16.2177 59.8668 16.3766 59.6708 16.3766C58.6908 16.3766 57.8964 15.5822 57.8964 14.6022V8.36533C57.8964 8.16933 58.0553 8.01044 58.2513 8.01044H58.9397C59.5395 8.01044 60.0257 8.49669 60.0257 9.0965C60.3096 8.73147 60.6696 8.44756 61.1056 8.24477C61.5517 8.03183 62.0385 7.92536 62.5657 7.92536Z" fill="#00B35E"/>
<path d="M70.6821 7.84629C71.3107 7.84629 71.8633 7.97303 72.3399 8.22652C72.8165 8.46988 73.1916 8.78928 73.4654 9.18473V8.20056C73.4654 8.09556 73.5505 8.01044 73.6555 8.01044H73.7088C74.7588 8.01044 75.61 8.86164 75.61 9.91164V16.4701C75.61 17.2509 75.4528 17.9455 75.1385 18.5538C74.8241 19.1724 74.3526 19.6591 73.724 20.014C73.0953 20.379 72.3348 20.5615 71.4425 20.5615C70.246 20.5615 69.2625 20.2827 68.4919 19.725C67.8446 19.2503 67.4361 18.6288 67.2663 17.8604C67.2176 17.6399 67.3957 17.4435 67.6214 17.4435H69.0274C69.1967 17.4435 69.341 17.5581 69.4167 17.7095C69.5477 17.9716 69.7515 18.1871 70.028 18.3561C70.4032 18.5893 70.8544 18.7059 71.3817 18.7059C72.0002 18.7059 72.5021 18.5183 72.8874 18.1432C73.2728 17.7781 73.4654 17.2205 73.4654 16.4701V15.1621C73.1916 15.5575 72.8114 15.8871 72.3247 16.1507C71.8481 16.4144 71.3006 16.5462 70.6821 16.5462C69.9723 16.5462 69.3233 16.3637 68.7352 15.9986C68.1471 15.6336 67.6807 15.1215 67.3359 14.4625C67.0013 13.7932 66.834 13.0277 66.834 12.1658C66.834 11.3141 67.0013 10.5587 67.3359 9.89958C67.6807 9.2405 68.1421 8.73351 68.72 8.37862C69.3081 8.02373 69.9621 7.84629 70.6821 7.84629ZM73.4654 12.1962C73.4654 11.6791 73.364 11.238 73.1612 10.873C72.9584 10.4978 72.6847 10.2139 72.3399 10.0213C71.9952 9.81846 71.6251 9.71707 71.2296 9.71707C70.8342 9.71707 70.4691 9.81339 70.1345 10.006C69.7999 10.1987 69.5261 10.4826 69.3132 10.8578C69.1104 11.2228 69.009 11.6588 69.009 12.1658C69.009 12.6728 69.1104 13.1189 69.3132 13.5043C69.5261 13.8794 69.7999 14.1684 70.1345 14.3712C70.4793 14.574 70.8443 14.6754 71.2296 14.6754C71.6251 14.6754 71.9952 14.5791 72.3399 14.3864C72.6847 14.1836 72.9584 13.8997 73.1612 13.5347C73.364 13.1595 73.4654 12.7134 73.4654 12.1962Z" fill="#00B35E"/>
<path d="M76.3816 12.1866C76.3816 11.3349 76.5489 10.5795 76.8835 9.92037C77.2283 9.26129 77.6896 8.75431 78.2676 8.39942C78.8557 8.04453 79.5097 7.86708 80.2296 7.86708C80.8583 7.86708 81.4058 7.99383 81.8723 8.24732C82.3488 8.50081 82.7291 8.82021 83.013 9.20552V8.36787C83.013 8.17047 83.173 8.01044 83.3704 8.01044C84.3574 8.01044 85.1575 8.81057 85.1575 9.79757V16.0183C85.1575 16.2157 84.9975 16.3757 84.8001 16.3757H84.1906C83.5402 16.3757 83.013 15.8485 83.013 15.1981C82.7392 15.5936 82.359 15.9231 81.8723 16.1867C81.3957 16.4402 80.8431 16.567 80.2144 16.567C79.5047 16.567 78.8557 16.3845 78.2676 16.0194C77.6896 15.6544 77.2283 15.1423 76.8835 14.4833C76.5489 13.814 76.3816 13.0485 76.3816 12.1866ZM83.013 12.217C83.013 11.6999 82.9116 11.2588 82.7088 10.8938C82.506 10.5186 82.2322 10.2347 81.8875 10.0421C81.5427 9.83926 81.1726 9.73786 80.7772 9.73786C80.3817 9.73786 80.0167 9.83419 79.6821 10.0268C79.3475 10.2195 79.0737 10.5034 78.8608 10.8786C78.658 11.2436 78.5566 11.6796 78.5566 12.1866C78.5566 12.6936 78.658 13.1397 78.8608 13.525C79.0737 13.9002 79.3475 14.1892 79.6821 14.392C80.0268 14.5948 80.3919 14.6962 80.7772 14.6962C81.1726 14.6962 81.5427 14.5999 81.8875 14.4072C82.2322 14.2044 82.506 13.9205 82.7088 13.5555C82.9116 13.1803 83.013 12.7341 83.013 12.217Z" fill="#00B35E"/>
<path d="M91.1461 7.88229C92.1499 7.88229 92.9611 8.20169 93.5796 8.84049C94.1981 9.46916 94.5074 10.3513 94.5074 11.487V16.0208C94.5074 16.2168 94.3485 16.3757 94.1525 16.3757C93.1725 16.3757 92.3781 15.5813 92.3781 14.6013V11.7759C92.3781 11.1067 92.2108 10.5947 91.8761 10.2398C91.5415 9.87475 91.0853 9.69223 90.5073 9.69223C89.9192 9.69223 89.4528 9.87475 89.108 10.2398C88.7734 10.5947 88.6061 11.1067 88.6061 11.7759V16.0208C88.6061 16.2168 88.4472 16.3757 88.2512 16.3757C87.2712 16.3757 86.4767 15.5813 86.4767 14.6013V8.36533C86.4767 8.16933 86.6356 8.01044 86.8316 8.01044H87.5631C88.1391 8.01044 88.6061 8.4774 88.6061 9.05343C88.89 8.6884 89.25 8.40449 89.686 8.20169C90.1321 7.98876 90.6188 7.88229 91.1461 7.88229Z" fill="#00B35E"/>
<path fill-rule="evenodd" clip-rule="evenodd" d="M18.8586 9.2584V11.0001C18.8586 15.7832 14.9811 19.7084 10.1979 19.7084C5.41474 19.7084 1.44556 15.7832 1.44556 11.0001C1.44556 8.11007 2.06058 6.38143 2.54743 5.46579C2.79866 4.99329 3.39683 5.03854 3.69509 5.48285C3.96094 5.87888 4.27757 6.33222 4.54499 6.66329C5.13327 7.39159 5.86804 8.43655 5.86804 8.43655C6.04527 8.63978 6.31971 8.73054 6.58622 8.68951C7.11462 8.60815 8.02866 8.39982 9.42056 8.39982C10.4736 8.39982 11.2553 8.55826 11.6899 8.626C11.8991 8.65862 12.1204 8.62221 12.3057 8.52451C12.5711 8.38448 12.6731 8.07414 12.7472 7.78331C12.9025 7.17356 13.1699 6.04923 13.2557 5.22343C13.3393 4.41766 13.3116 3.30367 13.2837 2.64929C13.2712 2.35601 13.5044 2.1084 13.7979 2.1084H15.2145C16.0363 2.1084 16.7245 2.73118 16.8063 3.54898C16.8138 3.62374 16.9583 3.64318 16.9951 3.57767C17.1387 3.32184 17.4008 3.02507 17.8441 3.02507C18.261 3.02507 18.5176 3.28743 18.6661 3.53144C18.8208 3.78555 18.8381 4.09186 18.8322 4.3893C18.8216 4.91932 18.8108 5.76772 18.8427 6.06486C18.8532 6.16301 18.9046 6.25074 18.9828 6.30968C18.9974 6.32074 19.0138 6.32923 19.0306 6.33674L19.9121 6.73152C20.3269 6.97203 20.318 7.40508 19.8957 7.63331L19.0728 7.9512C19.0556 7.95783 19.0387 7.96546 19.0235 7.97577C18.9231 8.0436 18.8622 8.1572 18.8622 8.27952L18.8586 9.2584ZM17.8539 6.5084C17.8539 7.01466 17.4435 7.42507 16.9372 7.42507C16.431 7.42507 16.0206 7.01466 16.0206 6.5084C16.0206 6.00214 16.431 5.59173 16.9372 5.59173C17.4435 5.59173 17.8539 6.00214 17.8539 6.5084ZM6.41692 12.2867C5.92261 12.3384 5.61493 11.7359 5.95509 11.3735C6.29647 11.0098 6.73352 10.7484 7.22451 10.6605C7.78175 10.5607 8.58772 10.4501 9.42056 10.4501C10.2534 10.4501 11.0594 10.5607 11.6166 10.6605C12.1076 10.7484 12.5446 11.0098 12.886 11.3735C13.2262 11.7359 12.9185 12.3384 12.4242 12.2867C11.5389 12.1939 10.4008 12.1001 9.42056 12.1001C8.44034 12.1001 7.30224 12.1939 6.41692 12.2867Z" fill="#00B35E"/>
</svg>
