<svg width="24" height="25" viewBox="0 0 24 25" fill="none" xmlns="http://www.w3.org/2000/svg">
<path d="M2.75 9.5C2.75 7.70507 4.20507 6.25 6 6.25H18C19.7949 6.25 21.25 7.70507 21.25 9.5V18.5C21.25 20.2949 19.7949 21.75 18 21.75H6C4.20507 21.75 2.75 20.2949 2.75 18.5V9.5Z" stroke="#853291" stroke-width="1.5"/>
<path d="M13 10C13 9.44772 12.5523 9 12 9C11.4477 9 11 9.44772 11 10V13H8C7.44772 13 7 13.4477 7 14C7 14.5523 7.44772 15 8 15H11V18C11 18.5523 11.4477 19 12 19C12.5523 19 13 18.5523 13 18V15H16C16.5523 15 17 14.5523 17 14C17 13.4477 16.5523 13 16 13H13V10Z" fill="#853291"/>
<rect x="6" y="2.5" width="12" height="1.5" rx="0.75" fill="#853291"/>
</svg>
