<svg width="150" height="20" viewBox="0 0 150 20" fill="none" xmlns="http://www.w3.org/2000/svg">
<g clip-path="url(#clip0_1_10724)">
<path d="M86.399 4.61685C84.7821 4.61009 83.4752 5.18673 82.7178 6.21892L82.7382 1.52461C82.7425 0.509022 82.0462 0.0116804 80.608 0.00553284L79.3152 0L79.2351 18.3162C79.2314 19.2236 79.9394 19.7467 81.178 19.7516L82.6581 19.7578L82.6981 10.6415C82.7098 8.01709 83.7179 6.74515 85.7803 6.75437C87.738 6.76298 88.6087 7.38512 88.5926 11.0515L88.5606 18.3561C88.5563 19.2764 89.2797 19.7867 90.5971 19.7922L91.9836 19.7984L92.0218 11.011C92.0415 6.48634 90.4123 4.63345 86.3984 4.61624L86.399 4.61685Z" fill="#834CA4"/>
<path d="M60.5546 6.91731C60.5595 6.91547 60.5645 6.91485 60.5694 6.91301C60.652 6.88411 60.7407 6.86075 60.8325 6.84047C62.5776 6.41567 63.9098 7.48904 63.9098 7.48904L63.9147 6.36403C63.9184 5.52795 63.1759 4.63163 61.0827 4.62241C58.0036 4.60889 56.2875 6.03083 55.8352 8.97614C55.7834 9.44152 55.7366 9.90259 55.7341 10.4208L55.7002 18.2197C55.6953 19.2875 56.3571 19.7873 57.783 19.7935L59.1472 19.799L59.1546 10.2979C59.162 8.54458 59.3968 7.32859 60.5564 6.91915L60.5546 6.91793V6.91731Z" fill="#834CA4"/>
<path d="M76.5128 16.4203C76.5128 16.4203 74.9156 17.8957 73.0899 17.1027C72.2759 16.5918 72.1569 15.5319 72.1458 15.1071L72.1859 6.26259L75.7648 6.27796L75.7734 3.98552L72.1945 3.97015L72.2112 0.445112L70.8099 0.438965L70.7545 0.568065C69.9713 2.38898 68.5448 3.73408 66.7375 4.67712L66.6174 4.73737L66.6118 6.23861L68.6508 6.24722L68.6089 15.5147C68.5966 18.3057 70.028 19.7873 72.7485 19.799C73.2568 19.8015 73.6284 19.751 73.9698 19.649C76.1733 19.156 76.4475 17.5391 76.4475 17.5391C76.6034 16.9367 76.5134 16.4203 76.5134 16.4203H76.5128Z" fill="#834CA4"/>
<path d="M33.9463 5.0103H33.9475C33.9383 5.00723 33.929 5.00538 33.9192 5.00292C33.8187 4.97526 33.7158 4.94944 33.6105 4.92546C31.1808 4.34144 29.4733 4.8437 28.3765 5.4892C28.3389 5.51071 28.302 5.53285 28.265 5.55498C28.265 5.55498 28.2638 5.55498 28.2631 5.55621C27.6451 5.9226 27.1324 6.37691 26.8293 6.86319C26.812 6.88778 26.8034 6.9013 26.8034 6.9013C26.3696 6.23736 25.64 5.65887 24.7897 5.25436C22.917 4.26398 20.984 4.50865 19.6235 4.93284C18.9056 5.11296 18.2919 5.38039 17.7805 5.74432C17.2136 5.31952 16.5092 5.06317 15.7421 5.05948L14.9675 5.05641C14.9675 5.05641 15.7384 6.00867 15.7285 8.21996L15.7162 11.0245L15.71 12.4384L15.6842 18.3291C15.6805 19.2266 16.5068 19.7873 17.8402 19.7934L19.149 19.799L19.1897 10.655C19.1909 10.3188 19.2014 10.0132 19.2199 9.73289C19.2174 9.69047 19.215 9.64867 19.2131 9.60625C19.2322 9.26444 19.3068 8.70931 19.5643 8.23964C19.597 8.18246 19.6309 8.12591 19.6679 8.07181C19.6765 8.05951 19.6845 8.04722 19.6931 8.03492C20.1873 7.32672 21.0142 6.86196 21.9521 6.86196C23.3441 6.86196 24.4908 7.88492 24.667 9.20973C24.7397 9.62654 24.781 10.1079 24.7786 10.679L24.7447 18.3229C24.7404 19.234 25.5112 19.7811 26.8058 19.7867L28.2095 19.7928L28.2502 10.5843C28.252 10.2026 28.2779 9.85338 28.3229 9.53002C28.3414 8.05398 29.5602 6.86257 31.0625 6.86257C32.3947 6.86257 33.5039 7.79947 33.751 9.04067C33.751 9.04067 33.751 9.04313 33.751 9.04374C33.7842 9.21219 33.8027 9.38616 33.8027 9.56444C33.8027 9.56567 33.8027 9.56752 33.8027 9.56875C33.828 9.91178 33.8397 10.2892 33.8385 10.7184L33.8046 18.3297C33.799 19.6336 34.9236 19.7891 35.7708 19.7928L37.2694 19.799L37.307 11.3091C37.3236 7.58799 36.3963 5.70129 33.9451 5.01091L33.9463 5.0103Z" fill="#834CA4"/>
<path d="M12.2488 14.6103C12.2525 14.5083 12.2598 14.4099 12.2605 14.3048L12.282 9.47155C12.2968 6.10081 10.675 4.38502 6.49597 4.36657C4.351 4.35735 2.98983 4.88236 2.18446 5.50634C1.53253 6.11434 1.30269 6.91476 1.2269 7.42439V7.42624C1.2269 7.42624 1.2269 7.42808 1.22628 7.42931L1.185 7.72624L3.14203 7.24365L4.28568 7.01804C4.30171 7.01619 4.32081 7.01373 4.33621 7.01189C4.33621 7.01189 4.35285 7.00943 4.37935 7.00513C4.43665 6.99775 4.49211 6.98914 4.55065 6.98238C4.82793 6.94857 5.34246 6.89693 5.90751 6.89754C6.87986 6.92336 8.08452 7.16189 8.49367 8.11723C8.52325 8.19161 8.54913 8.26538 8.57193 8.33731C8.59904 8.44182 8.70872 8.92072 8.72351 9.89266L8.72105 10.4988L7.38884 10.4933C2.77478 10.4748 0.0129981 12.249 5.8029e-05 15.2405C-0.00918488 17.3073 1.08148 19.7755 6.32652 19.7983C8.29587 19.8069 9.76426 19.3692 10.7483 18.4747C11.407 19.5118 12.9974 19.3212 12.9974 19.3212C12.2925 18.9093 12.2364 15.9554 12.2481 14.6097L12.2488 14.6103ZM8.75062 14.6466C8.73953 17.1856 7.81832 17.6915 6.33576 17.6854C4.45822 17.6774 3.54933 16.8106 3.55734 15.0364C3.56412 13.4011 4.88586 12.5423 7.37898 12.5527L8.75925 12.5589L8.75001 14.6472L8.75062 14.6466Z" fill="#834CA4"/>
<path d="M106.968 14.6103C106.972 14.5083 106.979 14.4099 106.98 14.3048L107.001 9.47155C107.016 6.10081 105.394 4.38502 101.215 4.36657C99.0703 4.35735 97.7092 4.88236 96.9038 5.50634C96.2519 6.11434 96.022 6.91476 95.9462 7.42439V7.42624C95.9462 7.42624 95.9462 7.42808 95.9456 7.42931L95.9044 7.72624L97.8614 7.24365L99.005 7.01804C99.0211 7.01619 99.0402 7.01373 99.0556 7.01189C99.0556 7.01189 99.0722 7.00943 99.0987 7.00513C99.156 6.99775 99.2115 6.98914 99.27 6.98238C99.5473 6.94857 100.062 6.89693 100.627 6.89754C101.599 6.92336 102.804 7.16189 103.213 8.11723C103.243 8.19161 103.268 8.26539 103.291 8.33731C103.318 8.44182 103.428 8.92072 103.443 9.89266L103.44 10.4988L102.108 10.4933C97.4954 10.473 94.7336 12.2472 94.72 15.2386C94.7108 17.3054 95.8014 19.7737 101.046 19.7964C103.016 19.8051 104.484 19.3673 105.468 18.4729C106.127 19.51 107.717 19.3194 107.717 19.3194C107.012 18.9075 106.956 15.9536 106.968 14.6079V14.6103ZM103.47 14.6466C103.459 17.1856 102.538 17.6915 101.055 17.6854C99.1776 17.6774 98.2687 16.8106 98.2767 15.0364C98.2835 13.4011 99.6052 12.5423 102.098 12.5527L103.479 12.5589L103.469 14.6472L103.47 14.6466Z" fill="#834CA4"/>
<path d="M52.254 14.6103C52.2577 14.5083 52.2651 14.4099 52.2657 14.3048L52.2873 9.47155C52.3021 6.10081 50.6802 4.38502 46.5012 4.36657C44.3562 4.35735 42.9951 4.88236 42.1897 5.50634C41.5378 6.11434 41.3079 6.91476 41.2321 7.42439V7.42624C41.2321 7.42624 41.2321 7.42808 41.2315 7.42931L41.1902 7.72624L43.1473 7.24365L44.2909 7.01804C44.307 7.01619 44.326 7.01373 44.3415 7.01189C44.3415 7.01189 44.3581 7.00943 44.3846 7.00513C44.4419 6.99775 44.4974 6.98914 44.5559 6.98238C44.8332 6.94857 45.3477 6.89693 45.9127 6.89754C46.8851 6.92336 48.0898 7.16189 48.4989 8.11723C48.5285 8.19161 48.5544 8.26539 48.5772 8.33731C48.6043 8.44182 48.714 8.92072 48.7288 9.89266L48.7263 10.4988L47.3941 10.4933C42.7813 10.473 40.0195 12.2472 40.0059 15.2386C39.9967 17.3054 41.0873 19.7737 46.3324 19.7964C48.3017 19.8051 49.7701 19.3673 50.7542 18.4729C51.4129 19.51 53.0033 19.3194 53.0033 19.3194C52.2984 18.9075 52.2423 15.9536 52.254 14.6079V14.6103ZM48.7559 14.6466C48.7448 17.1856 47.8236 17.6915 46.341 17.6854C44.4635 17.6774 43.5546 16.8106 43.5626 15.0364C43.5694 13.4011 44.8911 12.5423 47.3842 12.5527L48.7645 12.5589L48.7553 14.6472L48.7559 14.6466Z" fill="#834CA4"/>
<path d="M126.354 0.0541992L128.377 0.0800192C129.791 0.098462 130.926 1.24622 130.926 2.65648V19.8144L128.903 19.7886C127.489 19.7702 126.354 18.6224 126.354 17.2122V0.0541992Z" fill="#0097C7"/>
<path d="M113.561 0.110107C111.925 0.110107 110.599 1.43307 110.599 3.06526V18.3322C110.599 19.1892 111.296 19.8839 112.155 19.8839H115.303V12.5344H117.313C119.253 12.5344 120.825 10.633 120.825 8.28704H115.303V4.80319H119.74C121.376 4.80319 122.702 3.48022 122.702 1.84803V0.110107H113.561Z" fill="#0097C7"/>
<mask id="mask0_1_10724" style="mask-type:luminance" maskUnits="userSpaceOnUse" x="110" y="0" width="13" height="12">
<path d="M113.581 9.96588C114.594 8.27406 114.537 8.27037 115.357 8.27037V4.74656H119.845C119.845 4.74656 122.193 4.84247 122.841 2.13199V0H113.595C113.595 0 110.774 0.00122955 110.599 2.98896V11.7438C110.599 11.7438 112.129 12.3868 113.581 9.96588Z" fill="white"/>
</mask>
<g mask="url(#mask0_1_10724)">
<path d="M113.561 0.0405273C111.925 0.0405273 110.599 1.36349 110.599 2.99568V18.2626C110.599 19.1196 111.296 19.8143 112.155 19.8143H115.303V12.4648H117.313C119.253 12.4648 120.825 10.5634 120.825 8.21745H115.303V4.73361H119.74C121.376 4.73361 122.702 3.41064 122.702 1.77845V0.0405273H113.561Z" fill="#0097C7"/>
<path d="M113.571 0C111.917 0 110.575 1.33833 110.575 2.98897V18.4305C110.575 19.2973 111.28 20 112.149 20H115.334V12.5663H117.367C119.328 12.5663 120.919 10.6433 120.919 8.27037H115.334V4.74656H119.821C121.476 4.74656 122.817 3.40823 122.817 1.7576V0H113.572H113.571Z" fill="#0097C7"/>
<path d="M113.595 0C111.941 0 110.599 1.33833 110.599 2.98897V18.4305C110.599 19.2973 111.304 20 112.173 20H115.358V12.5663H117.39C119.352 12.5663 120.943 10.6433 120.943 8.27037H115.358V4.74656H119.845C121.5 4.74656 122.841 3.40823 122.841 1.7576V0H113.596H113.595Z" fill="#005890"/>
</g>
<path d="M134.497 0.10999V17.2612C134.497 17.2612 134.696 19.7553 137.417 19.8143H138.711V8.29737L144.305 18.3813C144.305 18.3813 145.08 19.7872 147.835 19.8149H149.115V2.45223C149.115 2.45223 148.959 0.170236 146.435 0.109375H144.915V11.8064L139.207 1.53685C139.207 1.53685 138.314 0.10999 136.406 0.10999H134.497H134.497Z" fill="#0097C7"/>
</g>
<defs>
<clipPath id="clip0_1_10724">
<rect width="149.114" height="20" fill="white"/>
</clipPath>
</defs>
</svg>
