<svg width="32" height="33" viewBox="0 0 32 33" fill="none" xmlns="http://www.w3.org/2000/svg">
<path d="M10.3458 17.498C10.4748 17.4197 13.4718 18.1788 13.5313 18.0808C15.789 17.978 17.3271 18.404 18.4634 17.9976C18.7512 17.8947 21.7134 16.5284 21.9714 16.3374C22.8854 15.7776 23.8408 15.2865 24.8295 14.8683C26.1047 14.3002 26.9333 14.5303 27.4345 14.8976C27.5425 14.9787 27.6308 15.0826 27.6928 15.2017C27.7549 15.3208 27.789 15.4522 27.7928 15.5861C27.7966 15.72 27.77 15.853 27.7148 15.9754C27.6597 16.0978 27.5774 16.2064 27.4741 16.2933L23.5047 19.6773C21.8318 21.0327 19.9992 22.1837 18.0466 23.1053C17.0542 23.5363 13.4371 24.026 12.5142 23.5216C11.3084 22.8605 10.3458 17.498 10.3458 17.498Z" fill="#FFAA2E"/>
<path d="M12.3647 18.4773C12.4938 18.3989 15.4858 19.158 15.5453 19.06C17.8079 18.9572 19.3411 19.3833 20.4774 18.9768C20.7701 18.874 23.7274 17.5076 23.9904 17.3167C24.9042 16.7596 25.8577 16.2686 26.8435 15.8475C28.1236 15.2794 28.9473 15.5096 29.4534 15.8769C29.5614 15.9579 29.6497 16.0618 29.7118 16.181C29.7738 16.3001 29.808 16.4314 29.8118 16.5653C29.8156 16.6992 29.7889 16.8323 29.7338 16.9547C29.6786 17.077 29.5964 17.1857 29.4931 17.2726L25.5236 20.6565C23.8536 22.0158 22.0205 23.1671 20.0656 24.0845C19.098 24.5155 15.456 25.0052 14.538 24.5057C13.3273 23.8397 12.3647 18.4773 12.3647 18.4773Z" fill="#FFAA2E"/>
<path d="M22.3984 19.8194C20.9716 20.8937 19.437 21.8208 17.8186 22.5863C16.6575 23.1005 13.3529 23.3258 12.8022 23.027C12.2514 22.7283 11.5369 20.4315 11.0705 18.1886L11.7999 18.3453C12.956 18.5951 13.4423 18.7028 13.7052 18.644C14.5487 18.6146 15.293 18.644 15.953 18.6979C16.8562 18.8237 17.7759 18.7687 18.6572 18.5363C18.9747 18.4237 21.9816 17.0084 22.2892 16.8125C23.1783 16.2671 24.1071 15.7875 25.0679 15.3776C25.9164 15.0005 26.6011 14.9858 27.0923 15.3482C27.2809 15.3482 27.4694 15.2992 27.658 15.265C27.8465 15.2307 28.0053 15.216 28.1939 15.2013H28.313C28.2248 14.8925 28.0344 14.6218 27.7721 14.4324C27.1866 14.0064 26.1545 13.644 24.5866 14.3443C23.5725 14.7782 22.5923 15.2856 21.6541 15.8624C21.3663 16.0387 18.5232 17.3708 18.2602 17.4687C17.525 17.6363 16.7648 17.6695 16.0175 17.5667C15.1788 17.5043 14.3374 17.4863 13.4968 17.5128H13.4274C13.1892 17.4834 12.4995 17.3316 12.0331 17.2336C10.4155 16.881 10.2865 16.8566 10.0483 17.0133L9.71094 17.214L9.7804 17.596C10.0186 18.9183 10.8968 23.2866 12.2613 24.0212C12.816 24.2452 13.4148 24.3423 14.0129 24.3052C15.471 24.3033 16.9196 24.0736 18.3049 23.6245C19.8148 22.9199 21.2536 22.0754 22.6018 21.1024C22.415 20.95 22.2912 20.7354 22.2537 20.499C22.2162 20.2626 22.2677 20.0209 22.3984 19.8194Z" fill="#491D0A"/>
<path d="M16.0116 25.27C15.4131 25.3055 14.8143 25.2067 14.26 24.9811C12.9104 24.2465 12.0322 19.8782 11.7791 18.556L11.7146 18.174L12.0471 17.9732C12.3051 17.8165 12.4341 17.841 14.0318 18.1936C14.4982 18.2915 15.1829 18.4433 15.4211 18.4727H15.4856C16.3244 18.4424 17.1643 18.4588 18.0013 18.5217C18.7486 18.6246 19.5088 18.5914 20.244 18.4238C20.512 18.3258 23.3502 16.9938 23.6429 16.8175C24.5798 16.2415 25.5583 15.7341 26.5704 15.2993C28.1433 14.599 29.1704 14.9614 29.7609 15.3875C29.9378 15.5158 30.0829 15.682 30.1852 15.8738C30.2875 16.0655 30.3443 16.2777 30.3513 16.4943C30.364 16.7152 30.326 16.936 30.2401 17.1404C30.1541 17.3448 30.0226 17.5273 29.8551 17.6745L25.8857 21.0585C24.1749 22.4591 22.2949 23.645 20.2887 24.5893C18.9075 25.0343 17.4645 25.264 16.0116 25.27ZM13.089 19.1485C13.5555 21.3964 14.2997 23.7029 14.8207 23.987C15.3417 24.271 18.6711 24.0604 19.8372 23.5462C21.7383 22.644 23.5225 21.5194 25.1513 20.1965L29.1208 16.8126C29.1606 16.7789 29.192 16.7367 29.2127 16.6891C29.2333 16.6416 29.2426 16.59 29.2399 16.5383C29.2372 16.4934 29.2247 16.4496 29.2033 16.4099C29.1818 16.3702 29.152 16.3355 29.1158 16.3082C28.6196 15.9507 27.9399 15.9605 27.0864 16.3376C26.1262 16.7486 25.1975 17.2282 24.3078 17.7724C24.0051 17.9683 20.9982 19.3836 20.6807 19.4963C19.7977 19.7288 18.8764 19.7837 17.9715 19.6578C17.3116 19.6187 16.5723 19.5746 15.7288 19.604C15.4658 19.6627 14.9795 19.555 13.8234 19.3053L13.089 19.1485Z" fill="#491D0A"/>
<path d="M31.1302 16.974C30.634 16.6067 29.8005 16.3765 28.5203 16.974C27.5339 17.3937 26.5803 17.8847 25.6672 18.4431C25.4985 18.5509 24.1787 19.1728 23.226 19.6283C21.4744 15.6567 10.4988 15.9603 8.57858 16.1758C6.47475 16.4108 3.03618 17.8898 2.85259 18.2277C1.04647 21.5675 2.24724 23.3354 2.24724 23.7713C2.24724 25.1474 4.59421 25.4265 5.55681 25.6273C8.46942 26.2394 11.4118 26.8565 14.3988 26.8858C16.3191 26.8858 18.1351 26.8467 19.9363 26.0925C22.513 24.9212 24.9508 23.4726 27.2054 21.7732L31.1749 18.3893C31.2816 18.3022 31.3666 18.1922 31.4236 18.0677C31.4806 17.9432 31.508 17.8074 31.5037 17.6709C31.4994 17.5343 31.4635 17.4005 31.3988 17.2797C31.334 17.1589 31.2422 17.0544 31.1302 16.974Z" fill="#FFCCA2"/>
<path d="M31.4727 16.5138C30.8872 16.0877 29.8551 15.7302 28.2872 16.4305C27.2673 16.8563 26.2806 17.3555 25.3349 17.9242C25.2108 17.9976 24.4368 18.3747 23.5635 18.7861C23.4641 19.2358 23.3365 19.679 23.1814 20.1132H23.4494C23.4742 20.1132 25.6723 19.0799 25.965 18.8938C26.851 18.3461 27.7783 17.8664 28.7387 17.4589C29.5922 17.0769 30.2769 17.0671 30.7681 17.4246C30.8066 17.4509 30.838 17.486 30.8596 17.527C30.8812 17.568 30.8924 17.6135 30.8922 17.6597C30.8942 17.7106 30.8845 17.7612 30.8638 17.8078C30.8432 17.8545 30.8122 17.8959 30.7731 17.9291L26.8284 21.2983C24.6146 22.9656 22.2218 24.3878 19.6933 25.5392C17.9765 26.2542 16.2199 26.2983 14.3841 26.2836C11.4615 26.2591 8.51915 25.6421 5.66112 25.0397L5.28898 24.9663C4.54169 24.8696 3.81859 24.6389 3.15537 24.2855C2.73858 24.4129 2.32178 24.5353 1.90002 24.6235C2.51033 25.6029 4.11798 25.9065 5.07066 26.0926L5.43783 26.1661C8.33556 26.7733 11.3325 27.405 14.3692 27.4295H14.8654C16.655 27.5105 18.4423 27.2254 20.115 26.5921C22.7366 25.3966 25.216 23.9185 27.5082 22.1847L31.4777 18.7567C31.6496 18.6119 31.7858 18.4304 31.8761 18.2259C31.9664 18.0214 32.0083 17.7993 31.9987 17.5764C31.9904 17.373 31.9394 17.1735 31.8488 16.9906C31.7583 16.8076 31.6302 16.6453 31.4727 16.5138Z" fill="#491D0A"/>
<path d="M27.1665 6.073H6.90719C6.00287 6.073 5.26978 6.79653 5.26978 7.68906V18.0025C5.26978 18.895 6.00287 19.6186 6.90719 19.6186H27.1665C28.0708 19.6186 28.8039 18.895 28.8039 18.0025V7.68906C28.8039 6.79653 28.0708 6.073 27.1665 6.073Z" fill="#65C466"/>
<path d="M18.6519 5.5H17.8928C17.8213 5.5 17.7506 5.51397 17.6847 5.54109C17.6187 5.56822 17.5589 5.60796 17.5086 5.65804C17.4583 5.70813 17.4186 5.76756 17.3917 5.83288C17.3648 5.8982 17.3513 5.96812 17.352 6.03862C17.352 6.19577 17.4152 6.34647 17.5278 6.45758C17.6404 6.5687 17.7931 6.63114 17.9523 6.63114H18.6569L18.6519 5.5Z" fill="#491D0A"/>
<path d="M26.8541 5.5H18.6521V6.66061H26.8541C27.2186 6.66061 27.5682 6.80354 27.8259 7.05793C28.0837 7.31232 28.2285 7.65735 28.2285 8.01711V10.5783C28.2285 10.7263 28.2881 10.8683 28.3942 10.973C28.5003 11.0777 28.6441 11.1366 28.7942 11.1366H28.8438C28.9872 11.1366 29.1248 11.0803 29.2262 10.9802C29.3276 10.8801 29.3846 10.7443 29.3846 10.6028V8.01221C29.3859 7.68317 29.3215 7.35712 29.1949 7.0527C29.0684 6.74828 28.8823 6.47146 28.6473 6.23812C28.4122 6.00478 28.1328 5.81947 27.8251 5.69282C27.5174 5.56616 27.1875 5.50064 26.8541 5.5Z" fill="#491D0A"/>
<path d="M28.2281 17.689C28.2281 18.0488 28.0833 18.3938 27.8256 18.6482C27.5678 18.9026 27.2182 19.0455 26.8537 19.0455H7.22459C7.04368 19.0462 6.86442 19.0116 6.69709 18.9437C6.52976 18.8758 6.37766 18.776 6.24951 18.65C6.12136 18.5239 6.01966 18.3742 5.95028 18.2093C5.8809 18.0444 5.84519 17.8676 5.84519 17.689V7.9975C5.85042 7.64029 5.99821 7.29952 6.25648 7.04921C6.51474 6.7989 6.86262 6.65925 7.22459 6.66058C7.26606 6.66059 7.30711 6.65245 7.34537 6.63664C7.38362 6.62083 7.4183 6.59766 7.4474 6.56849C7.47649 6.53932 7.49941 6.50474 7.51482 6.46674C7.53024 6.42875 7.53785 6.38808 7.53719 6.34715V5.83296C7.5372 5.75068 7.50443 5.6717 7.44594 5.61306C7.38746 5.55442 7.30795 5.52082 7.22459 5.51953C6.55299 5.51953 5.90883 5.78252 5.43347 6.25076C4.95811 6.719 4.6904 7.35426 4.68909 8.01711V17.7086C4.68909 18.037 4.7547 18.3622 4.88218 18.6655C5.00966 18.9688 5.19651 19.2444 5.43202 19.4764C5.66753 19.7084 5.94708 19.8922 6.25467 20.0175C6.56227 20.1427 6.89186 20.2068 7.22459 20.2062H26.8537C27.5249 20.2062 28.1685 19.943 28.6431 19.4747C29.1177 19.0063 29.3843 18.371 29.3843 17.7086C29.3843 17.6422 29.3707 17.5764 29.3443 17.5154C29.3178 17.4543 29.279 17.3992 29.2303 17.3534C29.1815 17.3076 29.1239 17.272 29.0608 17.2489C28.9977 17.2258 28.9305 17.2156 28.8633 17.2189H28.7491C28.6819 17.2156 28.6147 17.2258 28.5516 17.2489C28.4885 17.272 28.4309 17.3076 28.3821 17.3534C28.3334 17.3992 28.2946 17.4543 28.2681 17.5154C28.2417 17.5764 28.2281 17.6422 28.2281 17.7086V17.689Z" fill="#491D0A"/>
<path d="M17.0397 17.0915C19.3799 17.0915 21.2771 15.2191 21.2771 12.9093C21.2771 10.5995 19.3799 8.72705 17.0397 8.72705C14.6994 8.72705 12.8022 10.5995 12.8022 12.9093C12.8022 15.2191 14.6994 17.0915 17.0397 17.0915Z" fill="white"/>
<path d="M17.1922 14.1829H16.2495L15.5499 13.2034H15.2472V14.1829H14.4186V11.2005H15.9071C16.0543 11.184 16.2034 11.1983 16.3447 11.2423C16.486 11.2864 16.6163 11.3593 16.7272 11.4562C16.838 11.5532 16.927 11.6721 16.9884 11.8052C17.0497 11.9383 17.0819 12.0827 17.0831 12.2289C17.0922 12.4278 17.0344 12.6241 16.9186 12.7871C16.8028 12.9501 16.6356 13.0707 16.443 13.13L17.227 14.1094L17.1922 14.1829ZM15.2472 11.8763V12.5913H15.9071C15.9523 12.5922 15.9972 12.5837 16.0388 12.5661C16.0804 12.5486 16.1177 12.5225 16.1482 12.4896C16.1788 12.4566 16.2018 12.4177 16.2159 12.3753C16.2299 12.3328 16.2346 12.288 16.2296 12.2436C16.2345 12.1975 16.2295 12.1509 16.2151 12.1068C16.2006 12.0627 16.177 12.022 16.1457 11.9874C16.1144 11.9529 16.0761 11.9251 16.0333 11.906C15.9905 11.8869 15.9442 11.8767 15.8972 11.8763H15.2472Z" fill="#298E33"/>
<path d="M18.4583 15.0641H17.6644V12.0768H18.3889L18.4236 12.307C18.5136 12.2138 18.6236 12.1416 18.7455 12.0958C18.8674 12.0501 18.9982 12.0319 19.1282 12.0425C19.2682 12.0417 19.4068 12.0701 19.5349 12.1259C19.6631 12.1817 19.7777 12.2637 19.8715 12.3664C19.9652 12.4691 20.0359 12.5901 20.0788 12.7217C20.1217 12.8533 20.1359 12.9923 20.1205 13.1297C20.133 13.2709 20.1154 13.4131 20.0688 13.5471C20.0222 13.6811 19.9476 13.804 19.8499 13.9079C19.7521 14.0117 19.6334 14.0941 19.5014 14.1499C19.3694 14.2057 19.2271 14.2335 19.0835 14.2316C18.9742 14.2406 18.8643 14.225 18.762 14.186C18.6598 14.147 18.5678 14.0855 18.493 14.0063L18.4583 15.0641ZM19.2969 13.1297C19.3024 13.0712 19.2955 13.0122 19.2765 12.9565C19.2576 12.9008 19.227 12.8496 19.1868 12.8062C19.1466 12.7629 19.0977 12.7283 19.0432 12.7047C18.9886 12.6812 18.9297 12.6691 18.8702 12.6694C18.8124 12.67 18.7553 12.6819 18.7023 12.7045C18.6492 12.727 18.6012 12.7598 18.5611 12.8008C18.5209 12.8418 18.4894 12.8902 18.4683 12.9433C18.4473 12.9964 18.4372 13.0531 18.4385 13.1101C18.4316 13.1707 18.4375 13.2321 18.4559 13.2904C18.4743 13.3487 18.5048 13.4025 18.5453 13.4486C18.5859 13.4946 18.6357 13.5318 18.6917 13.5578C18.7476 13.5839 18.8083 13.5982 18.8702 13.5998C18.9304 13.5995 18.9899 13.5867 19.0448 13.5623C19.0997 13.5378 19.1488 13.5023 19.189 13.4581C19.2292 13.4138 19.2596 13.3617 19.2782 13.3051C19.2967 13.2486 19.3031 13.1888 19.2969 13.1297Z" fill="#298E33"/>
<path d="M3.50229 19.1484C3.79504 19.0798 7.39734 17.4784 9.9924 17.4539C12.5875 17.4295 14.5623 18.7811 15.9119 18.7028C17.2615 18.6244 19.797 17.6009 21.1764 18.8497C22.5558 20.0985 20.2188 21.8957 15.8524 22.3903C11.4859 22.885 6.92102 23.595 4.93627 22.6254C2.95153 21.6557 3.50229 19.1484 3.50229 19.1484Z" fill="#FFCCA2"/>
<path d="M21.5787 18.4133C20.3383 17.2918 18.4379 17.664 17.0535 17.9235C16.669 18.0077 16.2796 18.0682 15.8875 18.1047C15.2337 18.0591 14.5918 17.9086 13.9871 17.6591C12.7142 17.1614 11.3616 16.8911 9.99279 16.8608C7.74507 16.8608 4.8275 18.0117 3.72597 18.4328L3.38855 18.5651H3.3439C3.2463 18.5841 3.15674 18.6316 3.08684 18.7014C3.01694 18.7713 2.96994 18.8603 2.95192 18.9568V18.9911C2.89182 19.2861 2.86354 19.5865 2.86756 19.8873L3.05612 19.7943C3.49347 19.6128 3.94693 19.4718 4.41069 19.3731H4.48513C5.70575 18.8834 8.16187 18.0215 10.0126 18.0068C11.2513 18.0389 12.4743 18.2877 13.6249 18.7414C14.3671 19.044 15.1591 19.21 15.9619 19.2311C16.4057 19.1893 16.8465 19.1206 17.2818 19.0254C18.4925 18.7903 19.9909 18.4965 20.7997 19.2311C21.0677 19.471 21.0131 19.6278 20.9883 19.7208C20.7948 20.3232 19.207 21.4152 15.8031 21.8021C15.2524 21.8609 14.7016 21.9295 14.1558 21.9931C13.476 22.0764 12.7962 22.1547 12.1214 22.2233C11.9984 22.2382 11.8846 22.2954 11.8002 22.385C11.7157 22.4746 11.6661 22.5908 11.66 22.713V22.8207C11.6486 22.8973 11.6558 22.9754 11.681 23.0487C11.7062 23.122 11.7486 23.1884 11.8047 23.2424C11.8609 23.2964 11.9292 23.3365 12.0041 23.3594C12.079 23.3823 12.1583 23.3873 12.2356 23.3741C12.9104 23.3056 13.6001 23.2223 14.3046 23.1391L15.9421 22.9481C19.2318 22.5759 21.6482 21.4789 22.0997 20.0881C22.1953 19.7897 22.1966 19.4697 22.1035 19.1706C22.0105 18.8714 21.8274 18.6073 21.5787 18.4133Z" fill="#491D0A"/>
<path d="M3.14507 16.7588H1.34888C0.921383 16.7588 0.574829 17.1008 0.574829 17.5227V24.7412C0.574829 25.1631 0.921383 25.5052 1.34888 25.5052H3.14507C3.57257 25.5052 3.91913 25.1631 3.91913 24.7412V17.5227C3.91913 17.1008 3.57257 16.7588 3.14507 16.7588Z" fill="#65C466"/>
<path d="M2.56526 16.1858H1.93014C1.41824 16.1858 0.927296 16.3865 0.565323 16.7437C0.203349 17.101 0 17.5856 0 18.0908V24.1682C0 24.6734 0.203349 25.158 0.565323 25.5152C0.927296 25.8725 1.41824 26.0732 1.93014 26.0732H2.56526C3.07717 26.0732 3.56812 25.8725 3.93009 25.5152C4.29207 25.158 4.49542 24.6734 4.49542 24.1682V18.0908C4.49542 17.5856 4.29207 17.101 3.93009 16.7437C3.56812 16.3865 3.07717 16.1858 2.56526 16.1858ZM3.33932 24.1682C3.33997 24.2689 3.32043 24.3688 3.28182 24.462C3.24321 24.5553 3.1863 24.6401 3.11436 24.7115C3.04242 24.783 2.95687 24.8397 2.86264 24.8784C2.7684 24.9171 2.66733 24.937 2.56526 24.937H1.93014C1.82784 24.937 1.72655 24.9171 1.63204 24.8785C1.53752 24.8399 1.45165 24.7832 1.37931 24.7118C1.30697 24.6404 1.24959 24.5557 1.21045 24.4624C1.1713 24.3691 1.15115 24.2691 1.15115 24.1682V18.0908C1.15115 17.9901 1.17133 17.8903 1.21054 17.7973C1.24975 17.7043 1.3072 17.6198 1.3796 17.5488C1.452 17.4778 1.53793 17.4217 1.63242 17.3836C1.7269 17.3455 1.82808 17.3262 1.93014 17.3268H2.56526C2.77055 17.3268 2.96743 17.4073 3.11259 17.5506C3.25775 17.6939 3.33932 17.8882 3.33932 18.0908V24.1682Z" fill="#491D0A"/>
<path d="M7.22498 5.5H7.35895C7.43845 5.5 7.51716 5.51544 7.59061 5.54546C7.66405 5.57548 7.73079 5.61949 7.787 5.67496C7.84321 5.73044 7.8878 5.79631 7.91823 5.86879C7.94865 5.94127 7.96431 6.01895 7.96431 6.0974C7.96431 6.16878 7.95006 6.23948 7.92238 6.30542C7.8947 6.37137 7.85413 6.43129 7.80298 6.48176C7.75184 6.53224 7.69112 6.57226 7.6243 6.59958C7.55748 6.6269 7.48586 6.64098 7.41353 6.64098H7.22498V5.5Z" fill="#491D0A"/>
</svg>
